<svg xmlns="http://www.w3.org/2000/svg" xmlns:xlink="http://www.w3.org/1999/xlink" width="500" zoomAndPan="magnify" viewBox="0 0 375 374.999991" height="500" preserveAspectRatio="xMidYMid meet" version="1.0"><defs><clipPath id="be2028c61e"><path d="M 29.496094 21.488281 L 345.246094 21.488281 L 345.246094 337.238281 L 29.496094 337.238281 Z M 29.496094 21.488281 " clip-rule="nonzero"/></clipPath><clipPath id="15eb4975f4"><path d="M 51.242188 51.242188 L 323.492188 51.242188 L 323.492188 323.492188 L 51.242188 323.492188 Z M 51.242188 51.242188 " clip-rule="nonzero"/></clipPath></defs><g clip-path="url(#be2028c61e)"><path fill="#eeeeee" d="M 345.246094 305.664062 C 345.246094 323.105469 331.109375 337.238281 313.667969 337.238281 L 61.070312 337.238281 C 43.628906 337.238281 29.496094 323.105469 29.496094 305.664062 L 29.496094 53.0625 C 29.496094 35.625 43.628906 21.488281 61.070312 21.488281 L 313.667969 21.488281 C 331.109375 21.488281 345.246094 35.625 345.246094 53.0625 Z M 345.246094 305.664062 " fill-opacity="1" fill-rule="nonzero"/></g><g clip-path="url(#15eb4975f4)"><path fill="#000000" d="M 282.277344 323.492188 L 92.460938 323.492188 C 69.734375 323.492188 51.242188 305.003906 51.242188 282.277344 L 51.242188 92.460938 C 51.242188 69.734375 69.734375 51.242188 92.460938 51.242188 L 282.277344 51.242188 C 305.003906 51.242188 323.492188 69.734375 323.492188 92.460938 L 323.492188 282.277344 C 323.492188 305.003906 305.003906 323.492188 282.277344 323.492188 Z M 92.460938 69.394531 C 79.738281 69.394531 69.394531 79.738281 69.394531 92.460938 L 69.394531 282.277344 C 69.394531 294.996094 79.738281 305.34375 92.460938 305.34375 L 282.277344 305.34375 C 294.996094 305.34375 305.34375 294.996094 305.34375 282.277344 L 305.34375 92.460938 C 305.34375 79.738281 294.996094 69.394531 282.277344 69.394531 Z M 92.460938 69.394531 " fill-opacity="1" fill-rule="nonzero"/></g><path fill="#000000" d="M 218.257812 187.367188 C 218.257812 188.210938 218.214844 189.050781 218.132812 189.890625 C 218.050781 190.726562 217.925781 191.558594 217.761719 192.386719 C 217.597656 193.210938 217.394531 194.027344 217.148438 194.832031 C 216.90625 195.636719 216.621094 196.429688 216.300781 197.207031 C 215.976562 197.984375 215.617188 198.746094 215.21875 199.488281 C 214.824219 200.230469 214.390625 200.953125 213.921875 201.652344 C 213.457031 202.355469 212.953125 203.03125 212.421875 203.679688 C 211.886719 204.332031 211.320312 204.953125 210.726562 205.550781 C 210.128906 206.144531 209.507812 206.710938 208.855469 207.246094 C 208.203125 207.777344 207.527344 208.28125 206.828125 208.746094 C 206.128906 209.214844 205.40625 209.648438 204.664062 210.042969 C 203.921875 210.441406 203.160156 210.800781 202.382812 211.125 C 201.605469 211.445312 200.8125 211.730469 200.007812 211.972656 C 199.203125 212.21875 198.386719 212.421875 197.558594 212.585938 C 196.734375 212.75 195.902344 212.875 195.0625 212.957031 C 194.226562 213.039062 193.386719 213.082031 192.542969 213.082031 C 191.703125 213.082031 190.863281 213.039062 190.023438 212.957031 C 189.1875 212.875 188.355469 212.75 187.527344 212.585938 C 186.703125 212.421875 185.886719 212.21875 185.082031 211.972656 C 184.273438 211.730469 183.484375 211.445312 182.703125 211.125 C 181.925781 210.800781 181.167969 210.441406 180.421875 210.042969 C 179.679688 209.648438 178.960938 209.214844 178.257812 208.746094 C 177.558594 208.28125 176.882812 207.777344 176.234375 207.246094 C 175.582031 206.710938 174.957031 206.144531 174.363281 205.550781 C 173.765625 204.953125 173.203125 204.332031 172.667969 203.679688 C 172.132812 203.03125 171.632812 202.355469 171.164062 201.652344 C 170.699219 200.953125 170.265625 200.230469 169.867188 199.488281 C 169.472656 198.746094 169.113281 197.984375 168.789062 197.207031 C 168.46875 196.429688 168.183594 195.636719 167.9375 194.832031 C 167.695312 194.027344 167.492188 193.210938 167.324219 192.386719 C 167.160156 191.558594 167.039062 190.726562 166.957031 189.890625 C 166.875 189.050781 166.832031 188.210938 166.832031 187.367188 C 166.832031 186.527344 166.875 185.6875 166.957031 184.847656 C 167.039062 184.011719 167.160156 183.179688 167.324219 182.351562 C 167.492188 181.527344 167.695312 180.710938 167.9375 179.90625 C 168.183594 179.097656 168.46875 178.308594 168.789062 177.527344 C 169.113281 176.75 169.472656 175.992188 169.867188 175.246094 C 170.265625 174.503906 170.699219 173.785156 171.164062 173.082031 C 171.632812 172.382812 172.132812 171.707031 172.667969 171.058594 C 173.203125 170.40625 173.765625 169.78125 174.363281 169.1875 C 174.957031 168.59375 175.582031 168.027344 176.234375 167.492188 C 176.882812 166.957031 177.558594 166.457031 178.257812 165.988281 C 178.960938 165.523438 179.679688 165.089844 180.421875 164.691406 C 181.167969 164.296875 181.925781 163.9375 182.703125 163.613281 C 183.484375 163.292969 184.273438 163.007812 185.082031 162.761719 C 185.886719 162.519531 186.703125 162.316406 187.527344 162.152344 C 188.355469 161.984375 189.1875 161.863281 190.023438 161.78125 C 190.863281 161.699219 191.703125 161.65625 192.542969 161.65625 C 193.386719 161.65625 194.226562 161.699219 195.0625 161.78125 C 195.902344 161.863281 196.734375 161.984375 197.558594 162.152344 C 198.386719 162.316406 199.203125 162.519531 200.007812 162.761719 C 200.8125 163.007812 201.605469 163.292969 202.382812 163.613281 C 203.160156 163.9375 203.921875 164.296875 204.664062 164.691406 C 205.40625 165.089844 206.128906 165.523438 206.828125 165.988281 C 207.527344 166.457031 208.203125 166.957031 208.855469 167.492188 C 209.507812 168.027344 210.128906 168.59375 210.726562 169.1875 C 211.320312 169.78125 211.886719 170.40625 212.421875 171.058594 C 212.953125 171.707031 213.457031 172.382812 213.921875 173.082031 C 214.390625 173.785156 214.824219 174.503906 215.21875 175.246094 C 215.617188 175.992188 215.976562 176.75 216.300781 177.527344 C 216.621094 178.308594 216.90625 179.097656 217.148438 179.90625 C 217.394531 180.710938 217.597656 181.527344 217.761719 182.351562 C 217.925781 183.179688 218.050781 184.011719 218.132812 184.847656 C 218.214844 185.6875 218.257812 186.527344 218.257812 187.367188 Z M 218.257812 187.367188 " fill-opacity="1" fill-rule="nonzero"/></svg>