<svg xmlns="http://www.w3.org/2000/svg" width="723.034" height="575.509" viewBox="0 0 191.303 152.27" class="butterfly-outline"><g data-name="Layer 2" style="opacity: 0.247; fill: none; fill-opacity: 1; stroke: rgb(63, 73, 86); stroke-width: 8.41395; stroke-miterlimit: 4; stroke-dasharray: none; stroke-opacity: 1;"><g data-name="Layer 1" style="fill: none; fill-opacity: 1; stroke: rgb(63, 73, 86); stroke-width: 8.41395; stroke-miterlimit: 4; stroke-dasharray: none; stroke-opacity: 1;"><path d="m3813.29 1750.6 2 4.43c52.38 113.68 11.94 248.49-94.25 314.73q-9.07 5.67-18.12 11.34c-115.68 72.71-212.88 166.18-306.05 265.6-135.21 144.3-226.87 313.14-301.23 494.36-120.9 294.49-133.13 596.52-71 904.5 12 59.42 26.27 119.44 48.68 175.51 70.3 175.82 149.56 348.56 277 491 83.53 93.38 173.54 183.4 272 260.49 179 140.2 381.65 236.6 604.16 290.72 265.74 64.64 530.92 66.89 797 4.55 196.35-46 377.11-126.08 545.12-238.31 110.3-73.69 205.53-162.57 296.85-257.48 121-125.75 204.52-274.37 279.49-430.27 99.91-207.78 137.89-428.09 137.3-654.93-.51-194.61-34.08-386.32-112.08-565.56-70.24-161.42-152.48-318.14-272.69-449.6-64.85-70.91-216.35-187.51-336.83-276.19a248.34 248.34 0 0 1-74.89-311l7.1-14.2c68.71-137.51 244.62-180.28 368.7-89.54l3.22 2.36c104.47 77 209.81 155 302.31 245.4 87.31 85.28 160.46 185.53 236.32 282 124.82 158.68 204.51 340.89 272.38 529.62 87.93 244.52 122.42 496.27 112 754.82-5.68 140.22-20.35 280.21-60.42 414.69-64 214.87-137.77 427.56-267.4 613-82.96 118.51-173.39 233.36-272.31 338.64-82.85 88.2-178.54 166.25-276.52 237.9-134.29 98.21-280.22 177.53-434.9 241.9q-365.62 152.16-759.55 166c-262.94 9.75-520.74-22.23-769.51-109.91-95.24-33.57-187.77-75.35-280-116.83-200.78-90.32-375.29-218.47-534.92-369.59-119.42-113-219.35-240.42-312.11-375.43-79.16-115.23-143.4-237.13-188.66-368.62-36.05-104.72-66.53-211.39-98.45-317.51-54.26-180.36-57.93-365.88-49.71-551.59 4-89.35 11.17-180.16 31.75-266.78 30.16-127 67.68-253 113.28-375.28 39.35-105.5 86.92-209.56 144.21-306.36 82.5-139.41 177.91-271.82 294-385.7 87.47-85.8 179.23-168.91 277.94-241.13 34.34-25.12 69-50 104.53-73.94 126.97-85.41 300.24-36.77 364.26 102.19z" transform="matrix(.01988 -.00395 .00395 .01988 1.023 37.1)" style="fill: none; fill-opacity: 1; stroke: rgb(63, 73, 86); stroke-width: 8.41395; stroke-miterlimit: 4; stroke-dasharray: none; stroke-opacity: 1;"></path><path d="M5160 2214.7c56.73-137.73 222.16-193.8 350.71-118.55 14.1 8.25 27.13 16.2 38.49 23.59 124.74 81.14 227.61 184.83 325.61 296.36 123.49 140.54 203.25 302.36 271.75 474.05 89.14 223.39 107.25 453.64 82.27 688.45-10.43 98.07-29.23 197.55-61.26 290.52-59.46 172.59-135.5 339.52-253 481.8-88.83 107.62-183.36 211.19-297 294.24-171.27 125.22-358 220.25-563.94 273.19-264.21 67.93-529.43 72.95-796.24 9.48-129.78-30.88-253.25-76.92-371.41-136.6-65.47-33.06-126-76.08-188-115.81-120-76.9-216-179.49-309.11-285.91-142.08-162.35-229.76-351.91-294.57-555.39-84.17-264.25-84.48-531.65-19.11-796.27 48.35-195.68 129.29-381.61 254.88-543.8 85.78-110.77 177.23-217.05 289-301.91 47.33-35.91 95.46-70.73 145.34-103 130-84.09 304.48-27.76 361.32 116.24q4.63 11.71 9.14 23.14c40.51 102.63 18.3 197.12-87.59 256.41-116 64.95-326.11 311.46-360.78 367-83 133.1-134 276.16-151.13 430.41-22.67 203.94 4.72 402.73 99.25 585.81 65.48 126.81 146.14 245.73 257.52 339.39 170.57 143.43 364.35 234.7 586.12 267.77 187.7 28 367.83 2.67 545.35-59.39 93.75-32.77 177.69-82 259.42-137.05 128.3-86.42 223.48-201.55 305.79-331.15 128.3-202 164.81-423.49 145.54-656.06-11.47-138.35-49.95-272.69-121-392.27-73.5-123.63-157.57-242.33-276.05-328.31-22.64-16.42-52.7-36.6-84.26-57.13A245.5 245.5 0 0 1 5160 2214.7Z" transform="matrix(.01988 -.00395 .00395 .01988 1.023 37.1)" style="fill: none; fill-opacity: 1; stroke: rgb(63, 73, 86); stroke-width: 8.41395; stroke-miterlimit: 4; stroke-dasharray: none; stroke-opacity: 1;"></path><path d="m3002.85 972.6-7.09-10.9c-74.28-114.24-230.81-139.15-337.23-54q-6.59 5.28-13.12 10.63-155.62 127.85-304 264.43c-124.63 114.35-227.84 247.59-331 381.33-113.48 147.17-199.94 309.27-286.1 472.54-137.9 261.37-215.85 541.37-271.9 829.54-35 179.73-54.35 360.74-51.63 543.29 1.92 128 5.29 257.47 25.48 383.49 37.56 234.53 82 468.48 171.75 690.55 33.18 82.13 60.15 167.51 101 245.65 85.89 164.35 168 331.79 281 480 85.94 112.68 174.18 224.36 270.16 328.39 88.09 95.48 184.61 184 283.56 268.4 87.49 74.62 180.55 143.64 276.29 207.44 174.22 116.09 357.53 216.94 551.33 297 17.22 7.11 37.76 15.25 59.83 23.79 122.38 47.37 259.54-17 301.35-141.4a230.26 230.26 0 0 0-119.22-281.25c-142-67.66-331.54-161.81-439.71-231.3-107.42-69-207.8-149.08-310.52-225.31-107.69-79.93-195.91-180.07-288-276.59-97.24-101.88-175-217.32-254.39-332.34-138.39-200.49-228.38-422.6-306.71-651.7-82.48-241.27-115.34-489.21-121.52-742-6.46-264.65 23.12-526 101.72-778.62 45.72-147 108.57-288.85 168.16-431.15 27.07-64.65 59.44-128.55 99-186.19 92.87-135.27 185.78-271.3 289.75-397.92 78.11-95.13 169.27-180.9 262.29-262 35.74-31.17 90.36-73.43 144.37-113.79 97.15-72.7 121.25-208.31 55.1-310.01z" transform="matrix(.01988 -.00395 .00395 .01988 1.023 37.1)" style="fill: none; fill-opacity: 1; stroke: rgb(63, 73, 86); stroke-width: 8.41395; stroke-miterlimit: 4; stroke-dasharray: none; stroke-opacity: 1;"></path><path d="m3414.91 1379.32-34.15-56.89c-66.11-110.14-211.55-141.51-317.15-68.37-77.55 53.71-160.58 113.51-213.64 158.25-99.28 83.71-185.5 179-273.84 273.29-115.63 123.47-203.05 265-292.67 406.76-130.52 206.41-207.71 432.85-275.69 664.75-61.54 210-82.9 424.42-85 641.38-1.94 198.32 15.15 395.89 65.15 588 62.14 238.71 137.78 474.34 265.76 686.83a3939.86 3939.86 0 0 0 285.68 412.4c80.3 101.39 174.51 193.38 271.34 279.66 133 118.5 276.5 223.78 431.86 313.38a3060.92 3060.92 0 0 0 402.54 195l2.78 1.09c119.42 46.83 253.4-18.31 290.75-141l20.68-67.95a222.3 222.3 0 0 0-131.94-271.9c-91.81-35.78-194.93-78.62-257.7-113.14q-229-125.91-424.58-302.51c-113.52-102.26-208.87-218.5-301.26-338.95-122.24-159.35-202.8-339.05-277-523.78-55.84-139.08-88.48-283.2-107.23-429.79-33.07-258.54-23.61-516.83 39.07-770.88 62.87-254.83 166.53-493.32 317.74-707.69a2394.87 2394.87 0 0 1 263.18-312.51c63.22-63.16 178.32-150.8 275.19-221a222.29 222.29 0 0 0 60.13-294.43zM2524.71 629.05c-92.57-122.38-269.06-141.33-385.66-41.6-32 27.38-63.46 55.18-94.08 83.89C1935.47 774 1829.14 881 1730.33 993.88c-93.86 107.23-177.46 223.6-263.36 337.62-122.55 162.67-211.09 344.84-302.3 526-84 166.79-145.47 341.25-195.74 519.78-35 124.17-58.87 251.45-88.55 377.14-25.19 106.58-40.77 266.58-50.16 403.84-10.15 148.42 103.38 276.32 251.94 284l9.67.5c144.37 7.45 268.39-101.63 279.27-245.79 10.75-142.31 27.4-310.77 51-415.75 50.32-223.51 113.35-444.32 209-653.8 96.4-211 210.37-412.64 349.91-597.92 84.53-112.23 176.52-219.68 273.23-321.63 44.42-46.82 142.18-133 233.87-211.13 107.41-91.52 124.88-250.87 39.76-363.41z" transform="matrix(.01988 -.00395 .00395 .01988 1.023 37.1)" style="fill: none; fill-opacity: 1; stroke: rgb(63, 73, 86); stroke-width: 8.41395; stroke-miterlimit: 4; stroke-dasharray: none; stroke-opacity: 1;"></path><path d="m742.16 2162.59 14.49 4.55c117.21 36.8 242.9-23.15 288.15-137.36 38.33-96.75 79.07-196.2 97.8-232 62.76-119.76 127.27-238.91 197.64-354.3C1444.83 1272 1564.77 1110.71 1697.37 960c89.31-101.52 185-197.89 282.66-291.46 24.41-23.39 49.56-46 75.21-68.29 95-82.55 107.82-225.41 29.06-323.58l-3-3.7c-83.3-103.9-236.3-117.61-336.72-30.16-69.48 60.5-141.73 124.71-184.67 166.17-141.27 136.41-269.16 285-391 439.49-104.69 132.82-192.32 276-283.61 417.36C773 1439.74 689.18 1627.29 609.25 1817q-6.68 15.84-13.27 31.73c-52.9 127.32 14.66 272.58 146.18 313.86z" transform="matrix(.01988 -.00395 .00395 .01988 1.023 37.1)" style="fill: none; fill-opacity: 1; stroke: rgb(63, 73, 86); stroke-width: 8.41395; stroke-miterlimit: 4; stroke-dasharray: none; stroke-opacity: 1;"></path><path d="m1395.18 160-3.53-3.26c-96.89-89.46-247.64-84.43-338.44 11.2-64.87 68.31-131.71 140.45-166.12 182.11C794.17 462.57 706.88 579.76 617.2 695c-113.11 145.29-202.38 305.46-290.49 466.31q-8.34 15.23-16.64 30.45c-67.6 124-14.64 279.31 114.66 336.14l11.79 5.18c116.21 51.08 252.07 3.25 310.79-109.3 38.62-74 79.89-150.42 108-195 89.07-141.36 183.86-279.62 284.2-413.2 48.26-64.25 169.08-202.44 272.12-318 87.48-98.23 80.17-248.4-16.45-337.58zM765.45 62.11 761.83 59C660.75-29.53 506.38-17 421.22 86.93A5613.65 5613.65 0 0 0 37.8 613.51C-37.08 730.13 3.05 885.8 125 951.6l5.81 3.14c110.51 59.62 248.29 23.1 314.84-83.38 104.9-167.81 220.86-326.51 346.59-478.67 82.02-99.25 70.1-245.77-26.79-330.58zM1771.35 5867l17.54 19.29c61.61 67.76 167 71.27 233 7.76l150.83-145.2a162.53 162.53 0 0 0 8.27-225.6l-2.07-2.31a162.53 162.53 0 0 0-220.24-20.2q-82.56 63.66-166.28 128.22c-75.21 57.94-84.91 167.75-21.05 238.04zM4667.79 1843.71h-63.09a102.33 102.33 0 0 0-101.59 114.62c11.28 93.41 22.45 185.83 33.64 278.43a102.34 102.34 0 0 0 101.6 90.07 102.34 102.34 0 0 0 101.77-91.58c9.71-91.91 19.5-184.43 29.44-278.44a102.34 102.34 0 0 0-101.77-113.1zM4120.5 1410.59c22.39 82.43 73.5 270.55 108.29 398.6a41.73 41.73 0 0 0 49.14 29.84l.79-.17a41.72 41.72 0 0 0 32.12-48.67c-17.23-89.58-41.2-213.41-45.4-235.13a41.67 41.67 0 0 0-1.82-6.49l-60.45-164.14a41.75 41.75 0 0 0-49.15-26.1l-3.22.79a41.73 41.73 0 0 0-30.3 51.47zM3931.42 1373.41l.64-.19a34 34 0 0 0 22.68-42.8l-132-416.57a34 34 0 0 0-43.4-21.85l-18.84 6.45a34 34 0 0 0-20.88 43.8c50.15 137 99.78 272.49 150.24 410.3a33.94 33.94 0 0 0 41.56 20.86zM6269.64 972.6l7.09-10.9c74.28-114.24 230.81-139.15 337.23-54q6.59 5.28 13.12 10.63 155.63 127.85 304 264.43c124.63 114.35 227.84 247.59 331 381.33 113.48 147.17 199.94 309.27 286.1 472.54C7686.08 2298 7764 2578 7820.08 2866.17c35 179.73 54.35 360.74 51.63 543.29-1.92 128-5.29 257.47-25.48 383.49-37.56 234.53-82 468.48-171.75 690.55-33.18 82.13-60.15 167.51-101 245.65-85.89 164.35-168 331.79-281 480-85.94 112.68-174.18 224.36-270.16 328.39-88.09 95.48-184.61 184-283.56 268.4-87.49 74.62-180.55 143.64-276.29 207.44-174.22 116.09-357.53 216.94-551.33 297-17.22 7.11-37.76 15.25-59.83 23.79-122.38 47.37-259.54-17-301.35-141.4a230.26 230.26 0 0 1 119.22-281.25c142-67.66 331.54-161.81 439.71-231.3 107.42-69 207.81-149.08 310.52-225.31 107.69-79.93 195.91-180.07 288-276.59 97.24-101.88 175-217.32 254.39-332.34 138.39-200.49 228.38-422.6 306.71-651.7 82.48-241.27 115.34-489.21 121.52-742 6.47-264.65-23.12-526-101.72-778.62-45.72-147-108.57-288.85-168.16-431.15-27.07-64.65-59.44-128.55-99-186.19-92.87-135.27-185.77-271.3-289.75-397.92-78.11-95.13-169.27-180.9-262.29-262-35.74-31.17-90.35-73.43-144.37-113.79-97.15-72.7-121.22-208.31-55.1-310.01z" transform="matrix(.01988 -.00395 .00395 .01988 1.023 37.1)" style="fill: none; fill-opacity: 1; stroke: rgb(63, 73, 86); stroke-width: 8.41395; stroke-miterlimit: 4; stroke-dasharray: none; stroke-opacity: 1;"></path><path d="m5857.58 1379.32 34.15-56.89c66.11-110.14 211.55-141.51 317.15-68.37 77.55 53.71 160.58 113.51 213.64 158.25 99.28 83.71 185.5 179 273.84 273.29 115.63 123.47 203.05 265 292.67 406.76 130.52 206.41 207.71 432.85 275.69 664.75 61.54 210 82.9 424.42 85 641.38 1.94 198.32-15.15 395.89-65.15 588-62.14 238.71-137.78 474.34-265.76 686.83a3939.86 3939.86 0 0 1-285.68 412.4c-80.3 101.39-174.5 193.38-271.34 279.66-133 118.5-276.5 223.78-431.86 313.38a3060.31 3060.31 0 0 1-402.54 195l-2.78 1.09c-119.42 46.83-253.4-18.31-290.75-141l-20.68-67.95a222.3 222.3 0 0 1 131.94-271.9c91.81-35.78 194.93-78.62 257.71-113.14q229-125.91 424.57-302.51c113.52-102.26 208.87-218.5 301.27-338.95 122.23-159.35 202.79-339.05 277-523.78 55.84-139.08 88.48-283.2 107.23-429.79 33.07-258.54 23.61-516.83-39.07-770.88-62.87-254.83-166.53-493.32-317.74-707.69a2394.87 2394.87 0 0 0-263.18-312.51c-63.22-63.16-178.32-150.8-275.19-221a222.29 222.29 0 0 1-60.14-294.43z" transform="matrix(.01988 -.00395 .00395 .01988 1.023 37.1)" style="fill: none; fill-opacity: 1; stroke: rgb(63, 73, 86); stroke-width: 8.41395; stroke-miterlimit: 4; stroke-dasharray: none; stroke-opacity: 1;"></path><path d="M5588.81 2953.74c-71.2-137.09-160.83-257.44-284.24-353.44-199.9-155.51-425-233.83-677.27-233-273.46.89-511.54 98.27-716.52 276.19-129.1 112.06-216.76 255.86-277.66 413-31.93 82.38-49.26 173-57.59 261.38-15.7 166.36 6.17 328.15 78.06 483 71.76 154.62 163.08 291.66 298 398.27 86 68 176.59 126.41 279.42 166.72q34.45 13.5 69.26 24.73a970.4 970.4 0 0 0 13.59 4.29 1104.55 1104.55 0 0 0 141.92 33.87c3 .5 5.95 1 8.93 1.47q42 6.73 84.74 10.12c4.28.34 8.55.66 12.85.94q35.81 2.4 72.1 2.38 50-.55 97.08-4.55c6.29-.52 12.54-1.11 18.76-1.73 2.07-.2 4.15-.42 6.21-.64q6.19-.64 12.34-1.36c4.1-.47 8.19-1 12.26-1.49q18.31-2.33 36.25-5.2 8.94-1.44 17.83-3 5.91-1.06 11.78-2.16 5.87-1.1 11.72-2.28 5.83-1.19 11.63-2.4 5.8-1.21 11.55-2.53 5.76-1.29 11.48-2.64 5.72-1.35 11.41-2.77 5.68-1.43 11.33-2.89c154.41-40.3 289.09-114.64 421.85-222.72 128.73-104.8 223.38-240.68 284-392.94 112.05-281.8 109.59-563.96-33.07-838.62zm-403.26 468.41c-8.74 290.12-251.86 516.76-540.37 521.71-308.59 5.28-564.44-236.73-561.76-539.07-4.06-292.24 250-548 572.49-537.94 275.38 8.6 539.2 238.49 529.64 555.3zM6747.78 629.05c92.57-122.38 269.06-141.33 385.66-41.6 32 27.38 63.46 55.18 94.08 83.89C7337 774 7443.35 881 7542.16 993.88c93.86 107.23 177.46 223.6 263.36 337.62 122.55 162.67 211.09 344.84 302.3 526 84 166.79 145.47 341.25 195.74 519.78 35 124.17 58.87 251.45 88.55 377.14 25.19 106.64 40.77 266.57 50.16 403.87 10.16 148.42-103.38 276.32-251.94 284l-9.67.5c-144.37 7.45-268.38-101.63-279.27-245.79-10.75-142.31-27.4-310.77-51-415.75-50.32-223.51-113.35-444.32-209-653.8-96.4-211-210.37-412.64-349.91-597.92-84.53-112.23-176.52-219.68-273.22-321.63-44.43-46.82-142.19-133-233.88-211.13-107.4-91.52-124.88-250.87-39.76-363.41z" transform="matrix(.01988 -.00395 .00395 .01988 1.023 37.1)" style="fill: none; fill-opacity: 1; stroke: rgb(63, 73, 86); stroke-width: 8.41395; stroke-miterlimit: 4; stroke-dasharray: none; stroke-opacity: 1;"></path><path d="m8530.33 2162.59-14.49 4.55c-117.21 36.8-242.9-23.15-288.15-137.36-38.33-96.75-79.07-196.2-97.8-232-62.76-119.76-127.27-238.91-197.64-354.3C7827.66 1272 7707.73 1110.71 7575.12 960c-89.3-101.52-185-197.89-282.66-291.46-24.41-23.39-49.56-46-75.21-68.29-95-82.55-107.82-225.41-29.06-323.58l3-3.7c83.32-103.86 236.33-117.57 336.75-30.12 69.48 60.5 141.73 124.71 184.67 166.17 141.27 136.41 269.16 285 391 439.49 104.69 132.82 192.32 276 283.61 417.36 112.29 173.91 196.15 361.46 276.08 551.21q6.68 15.84 13.27 31.73c52.84 127.24-14.72 272.5-146.24 313.78z" transform="matrix(.01988 -.00395 .00395 .01988 1.023 37.1)" style="fill: none; fill-opacity: 1; stroke: rgb(63, 73, 86); stroke-width: 8.41395; stroke-miterlimit: 4; stroke-dasharray: none; stroke-opacity: 1;"></path><path d="m7877.31 160 3.53-3.26c96.89-89.46 247.64-84.43 338.44 11.2 64.87 68.33 131.71 140.47 166.12 182.13 92.92 112.52 180.21 229.71 269.89 344.92 113.11 145.29 202.38 305.46 290.49 466.31q8.34 15.23 16.64 30.45c67.6 124 14.64 279.31-114.65 336.14l-11.8 5.18c-116.21 51.08-252.07 3.25-310.79-109.3-38.62-74-79.89-150.42-108-195-89.07-141.36-183.86-279.62-284.2-413.2-48.26-64.25-169.08-202.44-272.12-318-87.48-98.22-80.17-248.39 16.45-337.57zM8507 62.11l3.62-3.16c101.09-88.48 255.45-75.92 340.61 28a5613.65 5613.65 0 0 1 383.42 526.58c74.88 116.62 34.75 272.29-87.21 338.09l-5.81 3.14c-110.51 59.62-248.29 23.1-314.84-83.38-104.85-167.83-220.79-326.53-346.54-478.69-82.02-99.25-70.1-245.77 26.75-330.58ZM7501.14 5867l-17.54 19.29c-61.6 67.76-167 71.27-233 7.76l-150.83-145.2a162.53 162.53 0 0 1-8.27-225.6l2.07-2.31a162.53 162.53 0 0 1 220.24-20.2q82.56 63.66 166.28 128.22c75.21 57.94 84.91 167.75 21.05 238.04zM4604.7 1843.71h63.09a102.33 102.33 0 0 1 101.59 114.62c-11.28 93.41-22.45 185.83-33.64 278.43a102.34 102.34 0 0 1-101.6 90.07 102.32 102.32 0 0 1-101.76-91.58c-9.72-91.91-19.51-184.43-29.45-278.44a102.34 102.34 0 0 1 101.77-113.1zM5152 1410.59c-22.39 82.43-73.5 270.55-108.29 398.6a41.73 41.73 0 0 1-49.14 29.84l-.79-.17a41.72 41.72 0 0 1-32.12-48.67c17.23-89.58 41.2-213.41 45.41-235.13a40.57 40.57 0 0 1 1.81-6.49l60.45-164.14a41.75 41.75 0 0 1 49.15-26.1l3.22.79a41.73 41.73 0 0 1 30.3 51.47zM5341.07 1373.41l-.64-.19a34 34 0 0 1-22.68-42.8l132-416.57a34 34 0 0 1 43.4-21.85l18.84 6.45a34 34 0 0 1 20.88 43.8c-50.15 137-99.78 272.49-150.24 410.3a33.94 33.94 0 0 1-41.56 20.86zM4633.56 3902.54c-271.15 3.54-507.25-228.7-509.7-491.5-2.5-269.48 231-499.7 502.05-503 283.16-3.46 512.22 223.13 519 485.49 7.09 275.89-231.91 511.67-511.35 509.01z" transform="matrix(.01988 -.00395 .00395 .01988 1.023 37.1)" style="fill: none; fill-opacity: 1; stroke: rgb(63, 73, 86); stroke-width: 8.41395; stroke-miterlimit: 4; stroke-dasharray: none; stroke-opacity: 1;"></path></g></g></svg>