<svg xmlns="http://www.w3.org/2000/svg" xmlns:xlink="http://www.w3.org/1999/xlink" width="940" zoomAndPan="magnify" viewBox="0 0 705 591.000005" height="788" preserveAspectRatio="xMidYMid meet" version="1.0"><defs><filter x="0%" y="0%" width="100%" height="100%" id="fe92240629"><feColorMatrix values="0 0 0 0 1 0 0 0 0 1 0 0 0 0 1 0 0 0 1 0" color-interpolation-filters="sRGB"/></filter><mask id="cc60f9d028"><g filter="url(#fe92240629)"><rect x="-70.5" width="846" fill="#000000" y="-59.100001" height="709.200006" fill-opacity="0.1176"/></g></mask><clipPath id="8925a63eae"><path d="M 0.59375 1.082031 L 585.355469 1.082031 L 585.355469 578 L 0.59375 578 Z M 0.59375 1.082031 " clip-rule="nonzero"/></clipPath><clipPath id="a83036d346"><rect x="0" width="586" y="0" height="578"/></clipPath></defs><g mask="url(#cc60f9d028)"><g transform="matrix(1, 0, 0, 1, 59, 12)"><g clip-path="url(#a83036d346)"><g clip-path="url(#8925a63eae)"><path fill="#ffffff" d="M 496.828125 585.839844 L 89.121094 585.839844 C 40.308594 585.839844 0.59375 546.128906 0.59375 497.3125 L 0.59375 89.605469 C 0.59375 40.792969 40.308594 1.082031 89.121094 1.082031 L 496.832031 1.082031 C 545.644531 1.082031 585.355469 40.792969 585.355469 89.605469 L 585.355469 497.316406 C 585.355469 546.128906 545.644531 585.839844 496.828125 585.839844 Z M 89.121094 40.0625 C 61.800781 40.0625 39.578125 62.285156 39.578125 89.605469 L 39.578125 497.316406 C 39.578125 524.632812 61.800781 546.855469 89.121094 546.855469 L 496.832031 546.855469 C 524.148438 546.855469 546.371094 524.632812 546.371094 497.3125 L 546.371094 89.605469 C 546.371094 62.285156 524.148438 40.0625 496.828125 40.0625 Z M 89.121094 40.0625 " fill-opacity="1" fill-rule="nonzero"/></g><path fill="#ffffff" d="M 359.320312 293.460938 C 359.320312 295.269531 359.230469 297.074219 359.054688 298.875 C 358.875 300.671875 358.609375 302.460938 358.257812 304.234375 C 357.90625 306.007812 357.464844 307.761719 356.941406 309.492188 C 356.414062 311.222656 355.808594 312.921875 355.113281 314.59375 C 354.421875 316.265625 353.652344 317.898438 352.796875 319.492188 C 351.945312 321.089844 351.015625 322.640625 350.011719 324.144531 C 349.007812 325.648438 347.929688 327.097656 346.78125 328.496094 C 345.636719 329.894531 344.421875 331.234375 343.144531 332.511719 C 341.863281 333.789062 340.527344 335.003906 339.128906 336.152344 C 337.730469 337.296875 336.277344 338.375 334.773438 339.378906 C 333.269531 340.382812 331.722656 341.3125 330.125 342.167969 C 328.53125 343.019531 326.898438 343.792969 325.226562 344.484375 C 323.554688 345.175781 321.855469 345.785156 320.125 346.308594 C 318.394531 346.835938 316.640625 347.273438 314.867188 347.625 C 313.09375 347.980469 311.304688 348.242188 309.503906 348.421875 C 307.707031 348.597656 305.902344 348.6875 304.09375 348.6875 C 302.285156 348.6875 300.480469 348.597656 298.679688 348.421875 C 296.878906 348.242188 295.09375 347.980469 293.316406 347.625 C 291.542969 347.273438 289.792969 346.835938 288.0625 346.308594 C 286.328125 345.785156 284.628906 345.175781 282.957031 344.484375 C 281.285156 343.792969 279.652344 343.019531 278.058594 342.164062 C 276.464844 341.3125 274.914062 340.382812 273.410156 339.378906 C 271.90625 338.375 270.453125 337.296875 269.058594 336.152344 C 267.660156 335.003906 266.320312 333.789062 265.039062 332.511719 C 263.761719 331.234375 262.546875 329.894531 261.402344 328.496094 C 260.253906 327.097656 259.175781 325.648438 258.171875 324.144531 C 257.167969 322.640625 256.238281 321.089844 255.386719 319.492188 C 254.535156 317.898438 253.761719 316.265625 253.070312 314.59375 C 252.378906 312.921875 251.769531 311.222656 251.242188 309.492188 C 250.71875 307.761719 250.28125 306.007812 249.925781 304.234375 C 249.574219 302.460938 249.308594 300.671875 249.132812 298.875 C 248.953125 297.074219 248.867188 295.269531 248.867188 293.460938 C 248.867188 291.652344 248.953125 289.847656 249.132812 288.046875 C 249.308594 286.246094 249.574219 284.460938 249.925781 282.6875 C 250.28125 280.914062 250.71875 279.160156 251.242188 277.429688 C 251.769531 275.699219 252.378906 273.996094 253.070312 272.324219 C 253.761719 270.65625 254.535156 269.023438 255.386719 267.425781 C 256.238281 265.832031 257.167969 264.28125 258.171875 262.777344 C 259.175781 261.273438 260.253906 259.824219 261.402344 258.425781 C 262.546875 257.027344 263.761719 255.6875 265.039062 254.410156 C 266.320312 253.128906 267.660156 251.917969 269.058594 250.769531 C 270.453125 249.621094 271.90625 248.546875 273.410156 247.542969 C 274.914062 246.535156 276.464844 245.605469 278.058594 244.753906 C 279.652344 243.902344 281.285156 243.128906 282.957031 242.4375 C 284.628906 241.746094 286.328125 241.136719 288.0625 240.613281 C 289.792969 240.085938 291.542969 239.648438 293.316406 239.292969 C 295.09375 238.941406 296.878906 238.675781 298.679688 238.5 C 300.480469 238.324219 302.285156 238.234375 304.09375 238.234375 C 305.902344 238.234375 307.707031 238.324219 309.503906 238.5 C 311.304688 238.675781 313.09375 238.941406 314.867188 239.292969 C 316.640625 239.648438 318.394531 240.085938 320.125 240.613281 C 321.855469 241.136719 323.554688 241.746094 325.226562 242.4375 C 326.898438 243.128906 328.53125 243.902344 330.125 244.753906 C 331.722656 245.609375 333.269531 246.535156 334.773438 247.542969 C 336.277344 248.546875 337.730469 249.621094 339.128906 250.769531 C 340.527344 251.917969 341.863281 253.128906 343.144531 254.410156 C 344.421875 255.6875 345.636719 257.027344 346.78125 258.425781 C 347.929688 259.824219 349.007812 261.273438 350.011719 262.777344 C 351.015625 264.28125 351.945312 265.832031 352.796875 267.425781 C 353.652344 269.023438 354.421875 270.65625 355.113281 272.324219 C 355.808594 273.996094 356.414062 275.699219 356.941406 277.429688 C 357.464844 279.160156 357.90625 280.914062 358.257812 282.6875 C 358.609375 284.460938 358.875 286.246094 359.054688 288.046875 C 359.230469 289.847656 359.320312 291.652344 359.320312 293.460938 Z M 359.320312 293.460938 " fill-opacity="1" fill-rule="nonzero"/></g></g></g></svg>